<svg viewBox="0 0 55 51" xmlns="http://www.w3.org/2000/svg"><path d="M17.535,49.705c2.85,-1.35 4.8,-4.65 4.8,-7.95c0,-2.175 -0.75,-3.375 -4.425,-7.125c-5.1,-5.25 -6.45,-8.475 -5.85,-14.25c0.45,-4.575 2.85,-9.15 6.825,-12.9c4.35,-4.2 3.45,-8.475 -1.575,-7.275c-3.15,0.825 -10.875,9.225 -13.65,14.775c-3.075,6.3 -4.5,16.2 -3.15,22.5c2.175,10.425 9.75,15.825 17.025,12.225Zm0,0c2.85,-1.35 4.8,-4.65 4.8,-7.95c0,-2.175 -0.75,-3.375 -4.425,-7.125c-5.1,-5.25 -6.45,-8.475 -5.85,-14.25c0.45,-4.575 2.85,-9.15 6.825,-12.9c4.35,-4.2 3.45,-8.475 -1.575,-7.275c-3.15,0.825 -10.875,9.225 -13.65,14.775c-3.075,6.3 -4.5,16.2 -3.15,22.5c2.175,10.425 9.75,15.825 17.025,12.225Zm32.25,0c2.85,-1.35 4.8,-4.65 4.8,-7.95c0,-2.175 -0.75,-3.375 -4.425,-7.125c-5.1,-5.25 -6.45,-8.475 -5.85,-14.25c0.45,-4.575 2.85,-9.15 6.825,-12.9c4.35,-4.2 3.45,-8.475 -1.575,-7.275c-3.15,0.825 -10.875,9.225 -13.65,14.775c-3.075,6.3 -4.5,16.2 -3.15,22.5c2.175,10.425 9.75,15.825 17.025,12.225Z" style="fill-opacity:0.1;fill-rule:nonzero;"/></svg>